<svg width="20" height="20" viewBox="0 0 20 20" fill="none" xmlns="http://www.w3.org/2000/svg">
<path d="M1.75558 8.82558L8.82558 1.75558C9.95229 0.631368 11.4789 0 13.0706 0C14.6622 0 16.1889 0.631368 17.3156 1.75558C19.6556 4.09558 19.6556 7.89558 17.3156 10.2456L10.2456 17.3156C7.89558 19.6556 4.09558 19.6556 1.75558 17.3156C0.631368 16.1889 0 14.6622 0 13.0706C0 11.4789 0.631368 9.95229 1.75558 8.82558ZM3.17558 10.2456C2.67717 10.7401 2.31844 11.3576 2.13579 12.0355C1.95314 12.7135 1.95307 13.4276 2.13558 14.1056L8.12558 8.12558L12.3656 12.3656L15.8956 8.82558C16.2684 8.45562 16.5643 8.01552 16.7662 7.53067C16.9681 7.04582 17.0721 6.5258 17.0721 6.00058C17.0721 5.47537 16.9681 4.95534 16.7662 4.47049C16.5643 3.98564 16.2684 3.54555 15.8956 3.17558C15.5256 2.80278 15.0855 2.5069 14.6007 2.30498C14.1158 2.10307 13.5958 1.99911 13.0706 1.99911C12.5454 1.99911 12.0253 2.10307 11.5405 2.30498C11.0556 2.5069 10.6155 2.80278 10.2456 3.17558L3.17558 10.2456Z" fill="#1A4447"/>
</svg>
